<svg width="1680" height="1563" viewBox="0 0 1680 1563" fill="none" xmlns="http://www.w3.org/2000/svg">
<g clip-path="url(#clip0_63_50)">
<path d="M1433.1 632.188L1345.84 719.5L1336.06 729.192L1237.82 630.94L1334.82 533.937H1334.86L1433.1 632.188Z" fill="white"/>
<path d="M1336.06 729.192V904.398L1237.82 805.605V630.94L1336.06 729.192Z" fill="#C4B5FD"/>
<path d="M1433.1 632.188V806.811L1336.06 904.397V729.192L1345.84 719.5L1433.1 632.188Z" fill="#A78BFA"/>
<path d="M1679.5 881.977L1592.15 969.289L1582.46 979.023L1484.22 880.771L1581.21 783.726L1679.5 881.977Z" fill="white"/>
<path d="M1582.46 979.023V1154.23L1484.22 1055.39V880.771L1582.46 979.023Z" fill="#C4B5FD"/>
<path d="M1679.5 881.977V1056.6L1582.46 1154.23V979.022L1592.15 969.289L1679.5 881.977Z" fill="#A78BFA"/>
<path d="M1387.97 1189.88V1365.08L1190.57 1562.5V1387.3L1300.38 1277.48L1387.97 1189.88Z" fill="#A78BFA"/>
<path d="M200.564 992.957V1168.2L0.5 968.207V793.001L88.1789 880.521L200.564 992.957Z" fill="#C4B5FD"/>
<path d="M1387.97 1189.88L1300.38 1277.48L1190.57 1387.3L498.456 695.083L200.564 992.957L88.1789 880.521L0.5 793.001L792.938 0.499023L993.335 200.912L905.739 288.515L696.233 498.08L1387.97 1189.88Z" fill="white"/>
<path d="M498.455 695.083V870.33L200.562 1168.2V992.957L498.455 695.083Z" fill="#A78BFA"/>
<path d="M1190.57 1387.3V1562.5L498.457 870.33V695.083L1190.57 1387.3Z" fill="#C4B5FD"/>
<path d="M993.336 200.913V376.118L783.83 585.683L696.234 498.08L905.74 288.515L993.336 200.913Z" fill="#A78BFA"/>
</g>
<defs>
<clipPath id="clip0_63_50">
<rect width="1680" height="1563" fill="white"/>
</clipPath>
</defs>
</svg>
